<svg width="718" height="718" viewBox="0 0 718 718" xmlns="http://www.w3.org/2000/svg"><title>akahu-circle-purple</title><g fill="none" fill-rule="evenodd"><circle fill="#8232FF" cx="359" cy="359" r="359"/><g fill="#FFF" fill-rule="nonzero"><path d="M494.997 501c-8.09 0-15.019 2.826-20.594 8.403-5.577 5.578-8.403 12.507-8.403 20.596 0 8.091 2.826 15.032 8.403 20.592 5.575 5.56 12.493 8.409 20.594 8.409 8.1 0 15.018-2.827 20.594-8.404C521.167 545.02 524 538.09 524 530c0-8.089-2.833-15.001-8.41-20.596-5.575-5.594-12.516-8.403-20.593-8.403ZM524 258.057c0-8.089-2.833-15.032-8.41-20.637-5.575-5.606-12.516-8.42-20.588-8.42-8.071 0-15.017 2.832-20.6 8.426-5.582 5.594-8.402 12.53-8.402 20.63v204.887c0 8.14 2.826 15.054 8.403 20.631 5.575 5.576 12.5 8.426 20.594 8.426 8.094 0 15.018-2.838 20.594-8.42 5.576-5.583 8.409-12.537 8.409-20.637V258.057ZM426.9 364H290.1c-8.117 0-15.07 2.83-20.667 8.408-5.597 5.577-8.433 12.505-8.433 20.595 0 8.089 2.836 15.03 8.433 20.589C275.029 419.15 281.97 422 290.1 422h136.798c8.119 0 15.071-2.826 20.663-8.402 5.59-5.577 8.438-12.506 8.438-20.595 0-8.09-2.836-15.007-8.438-20.595-5.603-5.588-12.556-8.408-20.663-8.408ZM426.9 160H290.1c-8.117 0-15.07 2.83-20.667 8.404C263.836 173.978 261 180.88 261 189s2.836 15.022 8.433 20.584C275.029 215.146 281.97 218 290.1 218h136.798c8.119 0 15.071-2.83 20.663-8.404C453.152 204.022 456 197.068 456 189s-2.836-14.993-8.438-20.584c-5.603-5.591-12.556-8.416-20.663-8.416ZM242.567 304.42C236.987 298.83 230.062 296 222 296s-15.005 2.831-20.578 8.42c-5.574 5.588-8.422 12.531-8.422 20.637v204.886c0 8.14 2.83 15.06 8.398 20.631S213.88 559 222 559c8.12 0 15.01-2.831 20.59-8.42 5.58-5.588 8.41-12.531 8.41-20.637V325.057c0-8.065-2.854-15.043-8.433-20.638ZM222 228c-8.08 0-15.005 2.826-20.578 8.409-5.574 5.582-8.422 12.505-8.422 20.588 0 8.084 2.83 15.036 8.398 20.595C206.966 283.15 213.88 286 222 286c8.12 0 15.01-2.826 20.59-8.408 5.58-5.583 8.41-12.506 8.41-20.595 0-8.09-2.825-15-8.404-20.594-5.58-5.594-12.54-8.403-20.596-8.403Z"/></g></g></svg>