<?xml version="1.0" encoding="UTF-8" standalone="no"?>
<!DOCTYPE svg PUBLIC "-//W3C//DTD SVG 1.1//EN" "http://www.w3.org/Graphics/SVG/1.1/DTD/svg11.dtd">
<svg width="100%" height="100%" viewBox="0 0 221 220" version="1.1" xmlns="http://www.w3.org/2000/svg" xmlns:xlink="http://www.w3.org/1999/xlink" xml:space="preserve" xmlns:serif="http://www.serif.com/" style="fill-rule:evenodd;clip-rule:evenodd;stroke-linejoin:round;stroke-miterlimit:2;">
    <g transform="matrix(1,0,0,1,376.6,-380.3)">
        <path d="M-376.6,490.5C-376.6,429.7 -327.3,380.4 -266.5,380.3C-205.7,380.2 -156.4,429.6 -156.3,490.4C-156.3,547.1 -199.3,594.5 -255.7,600L-255.7,539.1C-255.7,524.7 -253.5,518.6 -246.6,505.4C-232.9,479.9 -212.7,483.7 -213.8,486.3C-216.4,492.4 -218.2,495.7 -218.2,502.6C-218.2,515.9 -208,524.3 -195.4,524.3C-181.5,524.6 -170,513.6 -169.7,499.8L-169.7,499C-169.7,480.5 -181.7,469 -199.7,469C-223.6,469 -248.6,487.1 -255,507.7L-255.7,507.7L-255.7,469.8C-272.4,469.8 -289,471.3 -305.7,471.3L-325,471.3L-325,481.5L-318.5,481.5C-311.5,481.5 -305.7,487.2 -305.7,494.3L-305.7,593.7C-348.4,577.1 -376.5,536.1 -376.6,490.5M-310.7,423.6C-310.7,438.9 -298.3,451.4 -282.9,451.4C-267.6,451.4 -255.1,439 -255.1,423.6C-255.1,408.2 -267.5,395.8 -282.9,395.8C-298.3,395.9 -310.7,408.3 -310.7,423.6" style="fill:rgb(13,131,144);fill-rule:nonzero;"/>
    </g>
</svg>
